# xmcd
#
# Track frame offsets:
#	150
#	18264
#	38406
#	57356
#	84853
#	105740
#	135654
#	158297
#	185061
#	206153
#	231333
#
# Disc length: 3391 seconds
#
# Revision: 0
# Processed by: cddbd v1.5.2PL0 Copyright (c) Steve Scherf et al.
# Submitted via: EZCDAudioConverter 1.2.3.1
#
DISCID=840d3d0b
DTITLE=Rory Gallagher - Stage Struck
DYEAR=2018
DGENRE=Blues
TTITLE0=Shin Kicker
TTITLE1=Wayward Child
TTITLE2=Brute Force and Ignorance
TTITLE3=Moonchild
TTITLE4=Hellcat
TTITLE5=Bad Penny
TTITLE6=Keychain
TTITLE7=Follow Me
TTITLE8=Bought and Sold
TTITLE9=The Last of the Independents
TTITLE10=Shadow Play
EXTD=
EXTT0=
EXTT1=
EXTT2=
EXTT3=
EXTT4=
EXTT5=
EXTT6=
EXTT7=
EXTT8=
EXTT9=
EXTT10=
PLAYORDER=
